<mxfile host="app.diagrams.net" modified="2021-04-27T11:08:52.915Z" agent="5.0 (Windows NT 10.0; Win64; x64) AppleWebKit/537.36 (KHTML, like Gecko) Chrome/90.0.4430.93 Safari/537.36" etag="UjMZTsELwVQSILwGXkIc" version="14.6.6" type="github">
  <diagram id="X-Ss21UK3-7GD80m3NWl" name="Page-1">
    <mxGraphModel dx="1865" dy="547" grid="1" gridSize="10" guides="1" tooltips="1" connect="1" arrows="1" fold="1" page="1" pageScale="1" pageWidth="827" pageHeight="1169" math="0" shadow="0">
      <root>
        <mxCell id="0" />
        <mxCell id="1" parent="0" />
        <mxCell id="FYM2k32ndvNcaV-MZAKf-1" value="Kubernetes Cluster" style="rounded=1;whiteSpace=wrap;html=1;horizontal=1;verticalAlign=top;" vertex="1" parent="1">
          <mxGeometry x="-340" y="640" width="860" height="290" as="geometry" />
        </mxCell>
        <mxCell id="FYM2k32ndvNcaV-MZAKf-2" value="Namespace" style="rounded=1;whiteSpace=wrap;html=1;horizontal=1;verticalAlign=top;" vertex="1" parent="1">
          <mxGeometry x="40" y="700" width="470" height="220" as="geometry" />
        </mxCell>
        <mxCell id="FYM2k32ndvNcaV-MZAKf-3" value="" style="edgeStyle=orthogonalEdgeStyle;rounded=0;orthogonalLoop=1;jettySize=auto;html=1;strokeColor=#000000;strokeWidth=1;entryX=0;entryY=0.5;entryDx=0;entryDy=0;" edge="1" parent="1" source="FYM2k32ndvNcaV-MZAKf-4" target="FYM2k32ndvNcaV-MZAKf-6">
          <mxGeometry relative="1" as="geometry">
            <mxPoint x="210" y="790" as="targetPoint" />
          </mxGeometry>
        </mxCell>
        <mxCell id="FYM2k32ndvNcaV-MZAKf-4" value="Ingress" style="rounded=1;whiteSpace=wrap;html=1;horizontal=1;verticalAlign=top;" vertex="1" parent="1">
          <mxGeometry x="60" y="760" width="120" height="60" as="geometry" />
        </mxCell>
        <mxCell id="FYM2k32ndvNcaV-MZAKf-5" style="edgeStyle=orthogonalEdgeStyle;rounded=0;orthogonalLoop=1;jettySize=auto;html=1;entryX=0;entryY=0.5;entryDx=0;entryDy=0;strokeColor=#000000;strokeWidth=1;" edge="1" parent="1" source="FYM2k32ndvNcaV-MZAKf-6" target="FYM2k32ndvNcaV-MZAKf-7">
          <mxGeometry relative="1" as="geometry" />
        </mxCell>
        <mxCell id="FYM2k32ndvNcaV-MZAKf-6" value="Service" style="rounded=1;whiteSpace=wrap;html=1;horizontal=1;verticalAlign=top;" vertex="1" parent="1">
          <mxGeometry x="220" y="760" width="120" height="60" as="geometry" />
        </mxCell>
        <mxCell id="FYM2k32ndvNcaV-MZAKf-7" value="Pod" style="rounded=1;whiteSpace=wrap;html=1;horizontal=1;verticalAlign=top;" vertex="1" parent="1">
          <mxGeometry x="380" y="760" width="120" height="60" as="geometry" />
        </mxCell>
        <mxCell id="FYM2k32ndvNcaV-MZAKf-12" value="" style="aspect=fixed;html=1;points=[];align=center;image;fontSize=12;image=img/lib/mscae/Kubernetes.svg;" vertex="1" parent="1">
          <mxGeometry x="75" y="662" width="30" height="28.8" as="geometry" />
        </mxCell>
        <mxCell id="FYM2k32ndvNcaV-MZAKf-13" value="" style="html=1;dashed=0;whitespace=wrap;fillColor=#2875E2;strokeColor=#ffffff;points=[[0.005,0.63,0],[0.1,0.2,0],[0.9,0.2,0],[0.5,0,0],[0.995,0.63,0],[0.72,0.99,0],[0.5,1,0],[0.28,0.99,0]];shape=mxgraph.kubernetes.icon;prIcon=ns;aspect=fixed;" vertex="1" parent="1">
          <mxGeometry x="260" y="722" width="30" height="28.8" as="geometry" />
        </mxCell>
        <mxCell id="FYM2k32ndvNcaV-MZAKf-14" value="" style="html=1;dashed=0;whitespace=wrap;fillColor=#2875E2;strokeColor=#ffffff;points=[[0.005,0.63,0],[0.1,0.2,0],[0.9,0.2,0],[0.5,0,0],[0.995,0.63,0],[0.72,0.99,0],[0.5,1,0],[0.28,0.99,0]];shape=mxgraph.kubernetes.icon;prIcon=pod;aspect=fixed;" vertex="1" parent="1">
          <mxGeometry x="425" y="783" width="30" height="28.8" as="geometry" />
        </mxCell>
        <mxCell id="FYM2k32ndvNcaV-MZAKf-17" value="" style="html=1;dashed=0;whitespace=wrap;fillColor=#2875E2;strokeColor=#ffffff;points=[[0.005,0.63,0],[0.1,0.2,0],[0.9,0.2,0],[0.5,0,0],[0.995,0.63,0],[0.72,0.99,0],[0.5,1,0],[0.28,0.99,0]];shape=mxgraph.kubernetes.icon;prIcon=ing;aspect=fixed;" vertex="1" parent="1">
          <mxGeometry x="105" y="783" width="30" height="28.8" as="geometry" />
        </mxCell>
        <mxCell id="FYM2k32ndvNcaV-MZAKf-20" value="" style="html=1;dashed=0;whitespace=wrap;fillColor=#2875E2;strokeColor=#ffffff;points=[[0.005,0.63,0],[0.1,0.2,0],[0.9,0.2,0],[0.5,0,0],[0.995,0.63,0],[0.72,0.99,0],[0.5,1,0],[0.28,0.99,0]];shape=mxgraph.kubernetes.icon;prIcon=svc;aspect=fixed;" vertex="1" parent="1">
          <mxGeometry x="265" y="783" width="30" height="28.8" as="geometry" />
        </mxCell>
        <mxCell id="FYM2k32ndvNcaV-MZAKf-23" value="" style="edgeStyle=orthogonalEdgeStyle;rounded=0;orthogonalLoop=1;jettySize=auto;html=1;strokeColor=#000000;strokeWidth=1;entryX=0;entryY=0.5;entryDx=0;entryDy=0;" edge="1" parent="1" source="FYM2k32ndvNcaV-MZAKf-24" target="FYM2k32ndvNcaV-MZAKf-26">
          <mxGeometry relative="1" as="geometry">
            <mxPoint x="210" y="870" as="targetPoint" />
          </mxGeometry>
        </mxCell>
        <mxCell id="FYM2k32ndvNcaV-MZAKf-24" value="Ingress" style="rounded=1;whiteSpace=wrap;html=1;horizontal=1;verticalAlign=top;" vertex="1" parent="1">
          <mxGeometry x="60" y="840" width="120" height="60" as="geometry" />
        </mxCell>
        <mxCell id="FYM2k32ndvNcaV-MZAKf-25" style="edgeStyle=orthogonalEdgeStyle;rounded=0;orthogonalLoop=1;jettySize=auto;html=1;entryX=0;entryY=0.5;entryDx=0;entryDy=0;strokeColor=#000000;strokeWidth=1;" edge="1" parent="1" source="FYM2k32ndvNcaV-MZAKf-26" target="FYM2k32ndvNcaV-MZAKf-27">
          <mxGeometry relative="1" as="geometry" />
        </mxCell>
        <mxCell id="FYM2k32ndvNcaV-MZAKf-26" value="Service" style="rounded=1;whiteSpace=wrap;html=1;horizontal=1;verticalAlign=top;" vertex="1" parent="1">
          <mxGeometry x="220" y="840" width="120" height="60" as="geometry" />
        </mxCell>
        <mxCell id="FYM2k32ndvNcaV-MZAKf-27" value="Pod" style="rounded=1;whiteSpace=wrap;html=1;horizontal=1;verticalAlign=top;" vertex="1" parent="1">
          <mxGeometry x="380" y="840" width="120" height="60" as="geometry" />
        </mxCell>
        <mxCell id="FYM2k32ndvNcaV-MZAKf-28" value="" style="html=1;dashed=0;whitespace=wrap;fillColor=#2875E2;strokeColor=#ffffff;points=[[0.005,0.63,0],[0.1,0.2,0],[0.9,0.2,0],[0.5,0,0],[0.995,0.63,0],[0.72,0.99,0],[0.5,1,0],[0.28,0.99,0]];shape=mxgraph.kubernetes.icon;prIcon=pod;aspect=fixed;" vertex="1" parent="1">
          <mxGeometry x="425" y="863" width="30" height="28.8" as="geometry" />
        </mxCell>
        <mxCell id="FYM2k32ndvNcaV-MZAKf-29" value="" style="html=1;dashed=0;whitespace=wrap;fillColor=#2875E2;strokeColor=#ffffff;points=[[0.005,0.63,0],[0.1,0.2,0],[0.9,0.2,0],[0.5,0,0],[0.995,0.63,0],[0.72,0.99,0],[0.5,1,0],[0.28,0.99,0]];shape=mxgraph.kubernetes.icon;prIcon=ing;aspect=fixed;" vertex="1" parent="1">
          <mxGeometry x="105" y="863" width="30" height="28.8" as="geometry" />
        </mxCell>
        <mxCell id="FYM2k32ndvNcaV-MZAKf-30" value="" style="html=1;dashed=0;whitespace=wrap;fillColor=#2875E2;strokeColor=#ffffff;points=[[0.005,0.63,0],[0.1,0.2,0],[0.9,0.2,0],[0.5,0,0],[0.995,0.63,0],[0.72,0.99,0],[0.5,1,0],[0.28,0.99,0]];shape=mxgraph.kubernetes.icon;prIcon=svc;aspect=fixed;" vertex="1" parent="1">
          <mxGeometry x="265" y="863" width="30" height="28.8" as="geometry" />
        </mxCell>
        <mxCell id="FYM2k32ndvNcaV-MZAKf-32" value="Namespace" style="rounded=1;whiteSpace=wrap;html=1;horizontal=1;verticalAlign=top;" vertex="1" parent="1">
          <mxGeometry x="-330" y="700" width="220" height="220" as="geometry" />
        </mxCell>
        <mxCell id="FYM2k32ndvNcaV-MZAKf-54" style="edgeStyle=orthogonalEdgeStyle;rounded=0;orthogonalLoop=1;jettySize=auto;html=1;entryX=0;entryY=0.5;entryDx=0;entryDy=0;" edge="1" parent="1" source="FYM2k32ndvNcaV-MZAKf-37" target="FYM2k32ndvNcaV-MZAKf-24">
          <mxGeometry relative="1" as="geometry">
            <Array as="points">
              <mxPoint x="-100" y="830" />
              <mxPoint x="-100" y="870" />
            </Array>
          </mxGeometry>
        </mxCell>
        <mxCell id="FYM2k32ndvNcaV-MZAKf-37" value="NGINX Ingress Controller" style="rounded=1;whiteSpace=wrap;html=1;horizontal=1;verticalAlign=top;" vertex="1" parent="1">
          <mxGeometry x="-295" y="780" width="120" height="100" as="geometry" />
        </mxCell>
        <mxCell id="FYM2k32ndvNcaV-MZAKf-38" value="" style="html=1;dashed=0;whitespace=wrap;fillColor=#2875E2;strokeColor=#ffffff;points=[[0.005,0.63,0],[0.1,0.2,0],[0.9,0.2,0],[0.5,0,0],[0.995,0.63,0],[0.72,0.99,0],[0.5,1,0],[0.28,0.99,0]];shape=mxgraph.kubernetes.icon;prIcon=ns;aspect=fixed;" vertex="1" parent="1">
          <mxGeometry x="-235" y="722" width="30" height="28.8" as="geometry" />
        </mxCell>
        <mxCell id="FYM2k32ndvNcaV-MZAKf-52" value="" style="shape=image;html=1;verticalAlign=top;verticalLabelPosition=bottom;labelBackgroundColor=#ffffff;imageAspect=0;aspect=fixed;image=https://cdn4.iconfinder.com/data/icons/logos-brands-5/24/nginx-128.png" vertex="1" parent="1">
          <mxGeometry x="-250" y="825" width="38" height="38" as="geometry" />
        </mxCell>
        <mxCell id="FYM2k32ndvNcaV-MZAKf-53" style="edgeStyle=orthogonalEdgeStyle;rounded=0;orthogonalLoop=1;jettySize=auto;html=1;exitX=1;exitY=0.5;exitDx=0;exitDy=0;entryX=0;entryY=0.5;entryDx=0;entryDy=0;" edge="1" parent="1" source="FYM2k32ndvNcaV-MZAKf-37" target="FYM2k32ndvNcaV-MZAKf-4">
          <mxGeometry relative="1" as="geometry">
            <mxPoint x="20" y="1030" as="targetPoint" />
            <Array as="points">
              <mxPoint x="-100" y="830" />
              <mxPoint x="-100" y="790" />
            </Array>
          </mxGeometry>
        </mxCell>
        <mxCell id="FYM2k32ndvNcaV-MZAKf-57" style="edgeStyle=orthogonalEdgeStyle;rounded=0;orthogonalLoop=1;jettySize=auto;html=1;entryX=0;entryY=0.5;entryDx=0;entryDy=0;" edge="1" parent="1" source="FYM2k32ndvNcaV-MZAKf-56" target="FYM2k32ndvNcaV-MZAKf-37">
          <mxGeometry relative="1" as="geometry" />
        </mxCell>
        <mxCell id="FYM2k32ndvNcaV-MZAKf-56" value="User" style="verticalLabelPosition=bottom;html=1;verticalAlign=top;align=center;strokeColor=none;fillColor=#00BEF2;shape=mxgraph.azure.user;" vertex="1" parent="1">
          <mxGeometry x="-461" y="805" width="47.5" height="50" as="geometry" />
        </mxCell>
        <mxCell id="FYM2k32ndvNcaV-MZAKf-59" value="service1.gov.uk" style="text;html=1;strokeColor=none;fillColor=none;align=center;verticalAlign=middle;whiteSpace=wrap;rounded=0;" vertex="1" parent="1">
          <mxGeometry x="-40" y="770" width="40" height="20" as="geometry" />
        </mxCell>
        <mxCell id="FYM2k32ndvNcaV-MZAKf-60" value="service2.gov.uk" style="text;html=1;strokeColor=none;fillColor=none;align=center;verticalAlign=middle;whiteSpace=wrap;rounded=0;" vertex="1" parent="1">
          <mxGeometry x="-40" y="850" width="40" height="20" as="geometry" />
        </mxCell>
        <mxCell id="FYM2k32ndvNcaV-MZAKf-61" value="Kubernetes Cluster" style="rounded=1;whiteSpace=wrap;html=1;horizontal=1;verticalAlign=top;" vertex="1" parent="1">
          <mxGeometry x="-330" y="980" width="860" height="290" as="geometry" />
        </mxCell>
        <mxCell id="FYM2k32ndvNcaV-MZAKf-62" value="Namespace" style="rounded=1;whiteSpace=wrap;html=1;horizontal=1;verticalAlign=top;" vertex="1" parent="1">
          <mxGeometry x="50" y="1040" width="470" height="220" as="geometry" />
        </mxCell>
        <mxCell id="FYM2k32ndvNcaV-MZAKf-63" value="" style="edgeStyle=orthogonalEdgeStyle;rounded=0;orthogonalLoop=1;jettySize=auto;html=1;strokeColor=#000000;strokeWidth=1;entryX=0;entryY=0.5;entryDx=0;entryDy=0;" edge="1" parent="1" source="FYM2k32ndvNcaV-MZAKf-64" target="FYM2k32ndvNcaV-MZAKf-66">
          <mxGeometry relative="1" as="geometry">
            <mxPoint x="220" y="1130" as="targetPoint" />
          </mxGeometry>
        </mxCell>
        <mxCell id="FYM2k32ndvNcaV-MZAKf-64" value="Ingress" style="rounded=1;whiteSpace=wrap;html=1;horizontal=1;verticalAlign=top;" vertex="1" parent="1">
          <mxGeometry x="70" y="1100" width="120" height="60" as="geometry" />
        </mxCell>
        <mxCell id="FYM2k32ndvNcaV-MZAKf-65" style="edgeStyle=orthogonalEdgeStyle;rounded=0;orthogonalLoop=1;jettySize=auto;html=1;entryX=0;entryY=0.5;entryDx=0;entryDy=0;strokeColor=#000000;strokeWidth=1;" edge="1" parent="1" source="FYM2k32ndvNcaV-MZAKf-66" target="FYM2k32ndvNcaV-MZAKf-67">
          <mxGeometry relative="1" as="geometry" />
        </mxCell>
        <mxCell id="FYM2k32ndvNcaV-MZAKf-66" value="Service" style="rounded=1;whiteSpace=wrap;html=1;horizontal=1;verticalAlign=top;" vertex="1" parent="1">
          <mxGeometry x="230" y="1100" width="120" height="60" as="geometry" />
        </mxCell>
        <mxCell id="FYM2k32ndvNcaV-MZAKf-67" value="Pod" style="rounded=1;whiteSpace=wrap;html=1;horizontal=1;verticalAlign=top;" vertex="1" parent="1">
          <mxGeometry x="390" y="1100" width="120" height="60" as="geometry" />
        </mxCell>
        <mxCell id="FYM2k32ndvNcaV-MZAKf-68" value="" style="aspect=fixed;html=1;points=[];align=center;image;fontSize=12;image=img/lib/mscae/Kubernetes.svg;" vertex="1" parent="1">
          <mxGeometry x="85" y="1002" width="30" height="28.8" as="geometry" />
        </mxCell>
        <mxCell id="FYM2k32ndvNcaV-MZAKf-69" value="" style="html=1;dashed=0;whitespace=wrap;fillColor=#2875E2;strokeColor=#ffffff;points=[[0.005,0.63,0],[0.1,0.2,0],[0.9,0.2,0],[0.5,0,0],[0.995,0.63,0],[0.72,0.99,0],[0.5,1,0],[0.28,0.99,0]];shape=mxgraph.kubernetes.icon;prIcon=ns;aspect=fixed;" vertex="1" parent="1">
          <mxGeometry x="270" y="1062" width="30" height="28.8" as="geometry" />
        </mxCell>
        <mxCell id="FYM2k32ndvNcaV-MZAKf-70" value="" style="html=1;dashed=0;whitespace=wrap;fillColor=#2875E2;strokeColor=#ffffff;points=[[0.005,0.63,0],[0.1,0.2,0],[0.9,0.2,0],[0.5,0,0],[0.995,0.63,0],[0.72,0.99,0],[0.5,1,0],[0.28,0.99,0]];shape=mxgraph.kubernetes.icon;prIcon=pod;aspect=fixed;" vertex="1" parent="1">
          <mxGeometry x="435" y="1123" width="30" height="28.8" as="geometry" />
        </mxCell>
        <mxCell id="FYM2k32ndvNcaV-MZAKf-71" value="" style="html=1;dashed=0;whitespace=wrap;fillColor=#2875E2;strokeColor=#ffffff;points=[[0.005,0.63,0],[0.1,0.2,0],[0.9,0.2,0],[0.5,0,0],[0.995,0.63,0],[0.72,0.99,0],[0.5,1,0],[0.28,0.99,0]];shape=mxgraph.kubernetes.icon;prIcon=ing;aspect=fixed;" vertex="1" parent="1">
          <mxGeometry x="115" y="1123" width="30" height="28.8" as="geometry" />
        </mxCell>
        <mxCell id="FYM2k32ndvNcaV-MZAKf-72" value="" style="html=1;dashed=0;whitespace=wrap;fillColor=#2875E2;strokeColor=#ffffff;points=[[0.005,0.63,0],[0.1,0.2,0],[0.9,0.2,0],[0.5,0,0],[0.995,0.63,0],[0.72,0.99,0],[0.5,1,0],[0.28,0.99,0]];shape=mxgraph.kubernetes.icon;prIcon=svc;aspect=fixed;" vertex="1" parent="1">
          <mxGeometry x="275" y="1123" width="30" height="28.8" as="geometry" />
        </mxCell>
        <mxCell id="FYM2k32ndvNcaV-MZAKf-73" value="" style="edgeStyle=orthogonalEdgeStyle;rounded=0;orthogonalLoop=1;jettySize=auto;html=1;strokeColor=#000000;strokeWidth=1;entryX=0;entryY=0.5;entryDx=0;entryDy=0;" edge="1" parent="1" source="FYM2k32ndvNcaV-MZAKf-74" target="FYM2k32ndvNcaV-MZAKf-76">
          <mxGeometry relative="1" as="geometry">
            <mxPoint x="220" y="1210" as="targetPoint" />
          </mxGeometry>
        </mxCell>
        <mxCell id="FYM2k32ndvNcaV-MZAKf-74" value="Ingress" style="rounded=1;whiteSpace=wrap;html=1;horizontal=1;verticalAlign=top;" vertex="1" parent="1">
          <mxGeometry x="70" y="1180" width="120" height="60" as="geometry" />
        </mxCell>
        <mxCell id="FYM2k32ndvNcaV-MZAKf-75" style="edgeStyle=orthogonalEdgeStyle;rounded=0;orthogonalLoop=1;jettySize=auto;html=1;entryX=0;entryY=0.5;entryDx=0;entryDy=0;strokeColor=#000000;strokeWidth=1;" edge="1" parent="1" source="FYM2k32ndvNcaV-MZAKf-76" target="FYM2k32ndvNcaV-MZAKf-77">
          <mxGeometry relative="1" as="geometry" />
        </mxCell>
        <mxCell id="FYM2k32ndvNcaV-MZAKf-76" value="Service" style="rounded=1;whiteSpace=wrap;html=1;horizontal=1;verticalAlign=top;" vertex="1" parent="1">
          <mxGeometry x="230" y="1180" width="120" height="60" as="geometry" />
        </mxCell>
        <mxCell id="FYM2k32ndvNcaV-MZAKf-77" value="Pod" style="rounded=1;whiteSpace=wrap;html=1;horizontal=1;verticalAlign=top;" vertex="1" parent="1">
          <mxGeometry x="390" y="1180" width="120" height="60" as="geometry" />
        </mxCell>
        <mxCell id="FYM2k32ndvNcaV-MZAKf-78" value="" style="html=1;dashed=0;whitespace=wrap;fillColor=#2875E2;strokeColor=#ffffff;points=[[0.005,0.63,0],[0.1,0.2,0],[0.9,0.2,0],[0.5,0,0],[0.995,0.63,0],[0.72,0.99,0],[0.5,1,0],[0.28,0.99,0]];shape=mxgraph.kubernetes.icon;prIcon=pod;aspect=fixed;" vertex="1" parent="1">
          <mxGeometry x="435" y="1203" width="30" height="28.8" as="geometry" />
        </mxCell>
        <mxCell id="FYM2k32ndvNcaV-MZAKf-79" value="" style="html=1;dashed=0;whitespace=wrap;fillColor=#2875E2;strokeColor=#ffffff;points=[[0.005,0.63,0],[0.1,0.2,0],[0.9,0.2,0],[0.5,0,0],[0.995,0.63,0],[0.72,0.99,0],[0.5,1,0],[0.28,0.99,0]];shape=mxgraph.kubernetes.icon;prIcon=ing;aspect=fixed;" vertex="1" parent="1">
          <mxGeometry x="115" y="1203" width="30" height="28.8" as="geometry" />
        </mxCell>
        <mxCell id="FYM2k32ndvNcaV-MZAKf-80" value="" style="html=1;dashed=0;whitespace=wrap;fillColor=#2875E2;strokeColor=#ffffff;points=[[0.005,0.63,0],[0.1,0.2,0],[0.9,0.2,0],[0.5,0,0],[0.995,0.63,0],[0.72,0.99,0],[0.5,1,0],[0.28,0.99,0]];shape=mxgraph.kubernetes.icon;prIcon=svc;aspect=fixed;" vertex="1" parent="1">
          <mxGeometry x="275" y="1203" width="30" height="28.8" as="geometry" />
        </mxCell>
        <mxCell id="FYM2k32ndvNcaV-MZAKf-81" value="Namespace" style="rounded=1;whiteSpace=wrap;html=1;horizontal=1;verticalAlign=top;" vertex="1" parent="1">
          <mxGeometry x="-320" y="1040" width="220" height="220" as="geometry" />
        </mxCell>
        <mxCell id="FYM2k32ndvNcaV-MZAKf-82" style="edgeStyle=orthogonalEdgeStyle;rounded=0;orthogonalLoop=1;jettySize=auto;html=1;entryX=0;entryY=0.5;entryDx=0;entryDy=0;" edge="1" parent="1" source="FYM2k32ndvNcaV-MZAKf-83" target="FYM2k32ndvNcaV-MZAKf-74">
          <mxGeometry relative="1" as="geometry">
            <Array as="points">
              <mxPoint x="-90" y="1170" />
              <mxPoint x="-90" y="1210" />
            </Array>
          </mxGeometry>
        </mxCell>
        <mxCell id="FYM2k32ndvNcaV-MZAKf-83" value="NGINX Ingress Controller" style="rounded=1;whiteSpace=wrap;html=1;horizontal=1;verticalAlign=top;" vertex="1" parent="1">
          <mxGeometry x="-285" y="1120" width="120" height="100" as="geometry" />
        </mxCell>
        <mxCell id="FYM2k32ndvNcaV-MZAKf-84" value="" style="html=1;dashed=0;whitespace=wrap;fillColor=#2875E2;strokeColor=#ffffff;points=[[0.005,0.63,0],[0.1,0.2,0],[0.9,0.2,0],[0.5,0,0],[0.995,0.63,0],[0.72,0.99,0],[0.5,1,0],[0.28,0.99,0]];shape=mxgraph.kubernetes.icon;prIcon=ns;aspect=fixed;" vertex="1" parent="1">
          <mxGeometry x="-225" y="1062" width="30" height="28.8" as="geometry" />
        </mxCell>
        <mxCell id="FYM2k32ndvNcaV-MZAKf-85" value="" style="shape=image;html=1;verticalAlign=top;verticalLabelPosition=bottom;labelBackgroundColor=#ffffff;imageAspect=0;aspect=fixed;image=https://cdn4.iconfinder.com/data/icons/logos-brands-5/24/nginx-128.png" vertex="1" parent="1">
          <mxGeometry x="-240" y="1165" width="38" height="38" as="geometry" />
        </mxCell>
        <mxCell id="FYM2k32ndvNcaV-MZAKf-86" style="edgeStyle=orthogonalEdgeStyle;rounded=0;orthogonalLoop=1;jettySize=auto;html=1;exitX=1;exitY=0.5;exitDx=0;exitDy=0;entryX=0;entryY=0.5;entryDx=0;entryDy=0;" edge="1" parent="1" source="FYM2k32ndvNcaV-MZAKf-83" target="FYM2k32ndvNcaV-MZAKf-64">
          <mxGeometry relative="1" as="geometry">
            <mxPoint x="30" y="1370" as="targetPoint" />
            <Array as="points">
              <mxPoint x="-90" y="1170" />
              <mxPoint x="-90" y="1130" />
            </Array>
          </mxGeometry>
        </mxCell>
        <mxCell id="FYM2k32ndvNcaV-MZAKf-87" style="edgeStyle=orthogonalEdgeStyle;rounded=0;orthogonalLoop=1;jettySize=auto;html=1;entryX=0;entryY=0.5;entryDx=0;entryDy=0;" edge="1" parent="1" source="FYM2k32ndvNcaV-MZAKf-88" target="FYM2k32ndvNcaV-MZAKf-83">
          <mxGeometry relative="1" as="geometry" />
        </mxCell>
        <mxCell id="FYM2k32ndvNcaV-MZAKf-88" value="User" style="verticalLabelPosition=bottom;html=1;verticalAlign=top;align=center;strokeColor=none;fillColor=#00BEF2;shape=mxgraph.azure.user;" vertex="1" parent="1">
          <mxGeometry x="-451" y="1145" width="47.5" height="50" as="geometry" />
        </mxCell>
        <mxCell id="FYM2k32ndvNcaV-MZAKf-89" value="service1.gov.uk/app1" style="text;html=1;strokeColor=none;fillColor=none;align=center;verticalAlign=middle;whiteSpace=wrap;rounded=0;" vertex="1" parent="1">
          <mxGeometry x="-30" y="1110" width="40" height="20" as="geometry" />
        </mxCell>
        <mxCell id="FYM2k32ndvNcaV-MZAKf-90" value="service1.gov.uk/app2" style="text;html=1;strokeColor=none;fillColor=none;align=center;verticalAlign=middle;whiteSpace=wrap;rounded=0;" vertex="1" parent="1">
          <mxGeometry x="-30" y="1190" width="40" height="20" as="geometry" />
        </mxCell>
        <mxCell id="FYM2k32ndvNcaV-MZAKf-91" value="Kubernetes Cluster" style="rounded=1;whiteSpace=wrap;html=1;horizontal=1;verticalAlign=top;" vertex="1" parent="1">
          <mxGeometry x="-340" y="1360" width="990" height="290" as="geometry" />
        </mxCell>
        <mxCell id="FYM2k32ndvNcaV-MZAKf-92" value="Namespace" style="rounded=1;whiteSpace=wrap;html=1;horizontal=1;verticalAlign=top;" vertex="1" parent="1">
          <mxGeometry x="40" y="1420" width="600" height="220" as="geometry" />
        </mxCell>
        <mxCell id="FYM2k32ndvNcaV-MZAKf-93" value="" style="edgeStyle=orthogonalEdgeStyle;rounded=0;orthogonalLoop=1;jettySize=auto;html=1;strokeColor=#000000;strokeWidth=1;entryX=0;entryY=0.5;entryDx=0;entryDy=0;" edge="1" parent="1" source="FYM2k32ndvNcaV-MZAKf-94" target="FYM2k32ndvNcaV-MZAKf-96">
          <mxGeometry relative="1" as="geometry">
            <mxPoint x="340" y="1510" as="targetPoint" />
          </mxGeometry>
        </mxCell>
        <mxCell id="FYM2k32ndvNcaV-MZAKf-94" value="Ingress (minion)" style="rounded=1;whiteSpace=wrap;html=1;horizontal=1;verticalAlign=top;" vertex="1" parent="1">
          <mxGeometry x="190" y="1480" width="120" height="60" as="geometry" />
        </mxCell>
        <mxCell id="FYM2k32ndvNcaV-MZAKf-95" style="edgeStyle=orthogonalEdgeStyle;rounded=0;orthogonalLoop=1;jettySize=auto;html=1;entryX=0;entryY=0.5;entryDx=0;entryDy=0;strokeColor=#000000;strokeWidth=1;" edge="1" parent="1" source="FYM2k32ndvNcaV-MZAKf-96" target="FYM2k32ndvNcaV-MZAKf-97">
          <mxGeometry relative="1" as="geometry" />
        </mxCell>
        <mxCell id="FYM2k32ndvNcaV-MZAKf-96" value="Service" style="rounded=1;whiteSpace=wrap;html=1;horizontal=1;verticalAlign=top;" vertex="1" parent="1">
          <mxGeometry x="350" y="1480" width="120" height="60" as="geometry" />
        </mxCell>
        <mxCell id="FYM2k32ndvNcaV-MZAKf-97" value="Pod" style="rounded=1;whiteSpace=wrap;html=1;horizontal=1;verticalAlign=top;" vertex="1" parent="1">
          <mxGeometry x="510" y="1480" width="120" height="60" as="geometry" />
        </mxCell>
        <mxCell id="FYM2k32ndvNcaV-MZAKf-98" value="" style="aspect=fixed;html=1;points=[];align=center;image;fontSize=12;image=img/lib/mscae/Kubernetes.svg;" vertex="1" parent="1">
          <mxGeometry x="140" y="1382" width="30" height="28.8" as="geometry" />
        </mxCell>
        <mxCell id="FYM2k32ndvNcaV-MZAKf-99" value="" style="html=1;dashed=0;whitespace=wrap;fillColor=#2875E2;strokeColor=#ffffff;points=[[0.005,0.63,0],[0.1,0.2,0],[0.9,0.2,0],[0.5,0,0],[0.995,0.63,0],[0.72,0.99,0],[0.5,1,0],[0.28,0.99,0]];shape=mxgraph.kubernetes.icon;prIcon=ns;aspect=fixed;" vertex="1" parent="1">
          <mxGeometry x="260" y="1442" width="30" height="28.8" as="geometry" />
        </mxCell>
        <mxCell id="FYM2k32ndvNcaV-MZAKf-100" value="" style="html=1;dashed=0;whitespace=wrap;fillColor=#2875E2;strokeColor=#ffffff;points=[[0.005,0.63,0],[0.1,0.2,0],[0.9,0.2,0],[0.5,0,0],[0.995,0.63,0],[0.72,0.99,0],[0.5,1,0],[0.28,0.99,0]];shape=mxgraph.kubernetes.icon;prIcon=pod;aspect=fixed;" vertex="1" parent="1">
          <mxGeometry x="555" y="1503" width="30" height="28.8" as="geometry" />
        </mxCell>
        <mxCell id="FYM2k32ndvNcaV-MZAKf-101" value="" style="html=1;dashed=0;whitespace=wrap;fillColor=#2875E2;strokeColor=#ffffff;points=[[0.005,0.63,0],[0.1,0.2,0],[0.9,0.2,0],[0.5,0,0],[0.995,0.63,0],[0.72,0.99,0],[0.5,1,0],[0.28,0.99,0]];shape=mxgraph.kubernetes.icon;prIcon=ing;aspect=fixed;" vertex="1" parent="1">
          <mxGeometry x="235" y="1503" width="30" height="28.8" as="geometry" />
        </mxCell>
        <mxCell id="FYM2k32ndvNcaV-MZAKf-102" value="" style="html=1;dashed=0;whitespace=wrap;fillColor=#2875E2;strokeColor=#ffffff;points=[[0.005,0.63,0],[0.1,0.2,0],[0.9,0.2,0],[0.5,0,0],[0.995,0.63,0],[0.72,0.99,0],[0.5,1,0],[0.28,0.99,0]];shape=mxgraph.kubernetes.icon;prIcon=svc;aspect=fixed;" vertex="1" parent="1">
          <mxGeometry x="395" y="1503" width="30" height="28.8" as="geometry" />
        </mxCell>
        <mxCell id="FYM2k32ndvNcaV-MZAKf-103" value="" style="edgeStyle=orthogonalEdgeStyle;rounded=0;orthogonalLoop=1;jettySize=auto;html=1;strokeColor=#000000;strokeWidth=1;entryX=0;entryY=0.5;entryDx=0;entryDy=0;" edge="1" parent="1" source="FYM2k32ndvNcaV-MZAKf-104" target="FYM2k32ndvNcaV-MZAKf-106">
          <mxGeometry relative="1" as="geometry">
            <mxPoint x="340" y="1590" as="targetPoint" />
          </mxGeometry>
        </mxCell>
        <mxCell id="FYM2k32ndvNcaV-MZAKf-104" value="Ingress (minion)" style="rounded=1;whiteSpace=wrap;html=1;horizontal=1;verticalAlign=top;" vertex="1" parent="1">
          <mxGeometry x="190" y="1560" width="120" height="60" as="geometry" />
        </mxCell>
        <mxCell id="FYM2k32ndvNcaV-MZAKf-105" style="edgeStyle=orthogonalEdgeStyle;rounded=0;orthogonalLoop=1;jettySize=auto;html=1;entryX=0;entryY=0.5;entryDx=0;entryDy=0;strokeColor=#000000;strokeWidth=1;" edge="1" parent="1" source="FYM2k32ndvNcaV-MZAKf-106" target="FYM2k32ndvNcaV-MZAKf-107">
          <mxGeometry relative="1" as="geometry" />
        </mxCell>
        <mxCell id="FYM2k32ndvNcaV-MZAKf-106" value="Service" style="rounded=1;whiteSpace=wrap;html=1;horizontal=1;verticalAlign=top;" vertex="1" parent="1">
          <mxGeometry x="350" y="1560" width="120" height="60" as="geometry" />
        </mxCell>
        <mxCell id="FYM2k32ndvNcaV-MZAKf-107" value="Pod" style="rounded=1;whiteSpace=wrap;html=1;horizontal=1;verticalAlign=top;" vertex="1" parent="1">
          <mxGeometry x="510" y="1560" width="120" height="60" as="geometry" />
        </mxCell>
        <mxCell id="FYM2k32ndvNcaV-MZAKf-108" value="" style="html=1;dashed=0;whitespace=wrap;fillColor=#2875E2;strokeColor=#ffffff;points=[[0.005,0.63,0],[0.1,0.2,0],[0.9,0.2,0],[0.5,0,0],[0.995,0.63,0],[0.72,0.99,0],[0.5,1,0],[0.28,0.99,0]];shape=mxgraph.kubernetes.icon;prIcon=pod;aspect=fixed;" vertex="1" parent="1">
          <mxGeometry x="555" y="1583" width="30" height="28.8" as="geometry" />
        </mxCell>
        <mxCell id="FYM2k32ndvNcaV-MZAKf-109" value="" style="html=1;dashed=0;whitespace=wrap;fillColor=#2875E2;strokeColor=#ffffff;points=[[0.005,0.63,0],[0.1,0.2,0],[0.9,0.2,0],[0.5,0,0],[0.995,0.63,0],[0.72,0.99,0],[0.5,1,0],[0.28,0.99,0]];shape=mxgraph.kubernetes.icon;prIcon=ing;aspect=fixed;" vertex="1" parent="1">
          <mxGeometry x="235" y="1583" width="30" height="28.8" as="geometry" />
        </mxCell>
        <mxCell id="FYM2k32ndvNcaV-MZAKf-110" value="" style="html=1;dashed=0;whitespace=wrap;fillColor=#2875E2;strokeColor=#ffffff;points=[[0.005,0.63,0],[0.1,0.2,0],[0.9,0.2,0],[0.5,0,0],[0.995,0.63,0],[0.72,0.99,0],[0.5,1,0],[0.28,0.99,0]];shape=mxgraph.kubernetes.icon;prIcon=svc;aspect=fixed;" vertex="1" parent="1">
          <mxGeometry x="395" y="1583" width="30" height="28.8" as="geometry" />
        </mxCell>
        <mxCell id="FYM2k32ndvNcaV-MZAKf-111" value="Namespace" style="rounded=1;whiteSpace=wrap;html=1;horizontal=1;verticalAlign=top;" vertex="1" parent="1">
          <mxGeometry x="-330" y="1420" width="220" height="220" as="geometry" />
        </mxCell>
        <mxCell id="FYM2k32ndvNcaV-MZAKf-112" style="edgeStyle=orthogonalEdgeStyle;rounded=0;orthogonalLoop=1;jettySize=auto;html=1;entryX=0;entryY=0.5;entryDx=0;entryDy=0;" edge="1" parent="1" source="FYM2k32ndvNcaV-MZAKf-113" target="FYM2k32ndvNcaV-MZAKf-104">
          <mxGeometry relative="1" as="geometry">
            <Array as="points">
              <mxPoint x="-100" y="1550" />
              <mxPoint x="-100" y="1590" />
            </Array>
          </mxGeometry>
        </mxCell>
        <mxCell id="FYM2k32ndvNcaV-MZAKf-113" value="NGINX Ingress Controller" style="rounded=1;whiteSpace=wrap;html=1;horizontal=1;verticalAlign=top;" vertex="1" parent="1">
          <mxGeometry x="-295" y="1500" width="120" height="100" as="geometry" />
        </mxCell>
        <mxCell id="FYM2k32ndvNcaV-MZAKf-114" value="" style="html=1;dashed=0;whitespace=wrap;fillColor=#2875E2;strokeColor=#ffffff;points=[[0.005,0.63,0],[0.1,0.2,0],[0.9,0.2,0],[0.5,0,0],[0.995,0.63,0],[0.72,0.99,0],[0.5,1,0],[0.28,0.99,0]];shape=mxgraph.kubernetes.icon;prIcon=ns;aspect=fixed;" vertex="1" parent="1">
          <mxGeometry x="-235" y="1442" width="30" height="28.8" as="geometry" />
        </mxCell>
        <mxCell id="FYM2k32ndvNcaV-MZAKf-115" value="" style="shape=image;html=1;verticalAlign=top;verticalLabelPosition=bottom;labelBackgroundColor=#ffffff;imageAspect=0;aspect=fixed;image=https://cdn4.iconfinder.com/data/icons/logos-brands-5/24/nginx-128.png" vertex="1" parent="1">
          <mxGeometry x="-250" y="1545" width="38" height="38" as="geometry" />
        </mxCell>
        <mxCell id="FYM2k32ndvNcaV-MZAKf-116" style="edgeStyle=orthogonalEdgeStyle;rounded=0;orthogonalLoop=1;jettySize=auto;html=1;exitX=1;exitY=0.5;exitDx=0;exitDy=0;entryX=0;entryY=0.5;entryDx=0;entryDy=0;" edge="1" parent="1" source="FYM2k32ndvNcaV-MZAKf-113" target="FYM2k32ndvNcaV-MZAKf-94">
          <mxGeometry relative="1" as="geometry">
            <mxPoint x="20" y="1750" as="targetPoint" />
            <Array as="points">
              <mxPoint x="-100" y="1550" />
              <mxPoint x="-100" y="1510" />
            </Array>
          </mxGeometry>
        </mxCell>
        <mxCell id="FYM2k32ndvNcaV-MZAKf-117" style="edgeStyle=orthogonalEdgeStyle;rounded=0;orthogonalLoop=1;jettySize=auto;html=1;entryX=0;entryY=0.5;entryDx=0;entryDy=0;" edge="1" parent="1" source="FYM2k32ndvNcaV-MZAKf-118" target="FYM2k32ndvNcaV-MZAKf-113">
          <mxGeometry relative="1" as="geometry" />
        </mxCell>
        <mxCell id="FYM2k32ndvNcaV-MZAKf-118" value="User" style="verticalLabelPosition=bottom;html=1;verticalAlign=top;align=center;strokeColor=none;fillColor=#00BEF2;shape=mxgraph.azure.user;" vertex="1" parent="1">
          <mxGeometry x="-461" y="1525" width="47.5" height="50" as="geometry" />
        </mxCell>
        <mxCell id="FYM2k32ndvNcaV-MZAKf-119" value="service1.gov.uk/app1" style="text;html=1;strokeColor=none;fillColor=none;align=center;verticalAlign=middle;whiteSpace=wrap;rounded=0;" vertex="1" parent="1">
          <mxGeometry x="-40" y="1490" width="40" height="20" as="geometry" />
        </mxCell>
        <mxCell id="FYM2k32ndvNcaV-MZAKf-120" value="service1.gov.uk/app2" style="text;html=1;strokeColor=none;fillColor=none;align=center;verticalAlign=middle;whiteSpace=wrap;rounded=0;" vertex="1" parent="1">
          <mxGeometry x="-40" y="1570" width="40" height="20" as="geometry" />
        </mxCell>
        <mxCell id="FYM2k32ndvNcaV-MZAKf-121" value="Ingress (master)" style="rounded=1;whiteSpace=wrap;html=1;horizontal=1;verticalAlign=top;" vertex="1" parent="1">
          <mxGeometry x="60" y="1440" width="120" height="60" as="geometry" />
        </mxCell>
        <mxCell id="FYM2k32ndvNcaV-MZAKf-122" value="" style="html=1;dashed=0;whitespace=wrap;fillColor=#2875E2;strokeColor=#ffffff;points=[[0.005,0.63,0],[0.1,0.2,0],[0.9,0.2,0],[0.5,0,0],[0.995,0.63,0],[0.72,0.99,0],[0.5,1,0],[0.28,0.99,0]];shape=mxgraph.kubernetes.icon;prIcon=ing;aspect=fixed;" vertex="1" parent="1">
          <mxGeometry x="105" y="1463" width="30" height="28.8" as="geometry" />
        </mxCell>
        <mxCell id="FYM2k32ndvNcaV-MZAKf-123" value="Kubernetes Cluster" style="rounded=1;whiteSpace=wrap;html=1;horizontal=1;verticalAlign=top;" vertex="1" parent="1">
          <mxGeometry x="-334.5" y="1680" width="990" height="360" as="geometry" />
        </mxCell>
        <mxCell id="FYM2k32ndvNcaV-MZAKf-124" value="Namespace" style="rounded=1;whiteSpace=wrap;html=1;horizontal=1;verticalAlign=top;" vertex="1" parent="1">
          <mxGeometry x="45.5" y="1740" width="600" height="290" as="geometry" />
        </mxCell>
        <mxCell id="FYM2k32ndvNcaV-MZAKf-125" value="" style="edgeStyle=orthogonalEdgeStyle;rounded=0;orthogonalLoop=1;jettySize=auto;html=1;strokeColor=#000000;strokeWidth=1;entryX=0;entryY=0.5;entryDx=0;entryDy=0;" edge="1" parent="1" source="FYM2k32ndvNcaV-MZAKf-126" target="FYM2k32ndvNcaV-MZAKf-128">
          <mxGeometry relative="1" as="geometry">
            <mxPoint x="345.5" y="1830" as="targetPoint" />
          </mxGeometry>
        </mxCell>
        <mxCell id="FYM2k32ndvNcaV-MZAKf-126" value="Ingress (minion)" style="rounded=1;whiteSpace=wrap;html=1;horizontal=1;verticalAlign=top;" vertex="1" parent="1">
          <mxGeometry x="195.5" y="1800" width="120" height="60" as="geometry" />
        </mxCell>
        <mxCell id="FYM2k32ndvNcaV-MZAKf-127" style="edgeStyle=orthogonalEdgeStyle;rounded=0;orthogonalLoop=1;jettySize=auto;html=1;entryX=0;entryY=0.5;entryDx=0;entryDy=0;strokeColor=#000000;strokeWidth=1;" edge="1" parent="1" source="FYM2k32ndvNcaV-MZAKf-128" target="FYM2k32ndvNcaV-MZAKf-129">
          <mxGeometry relative="1" as="geometry" />
        </mxCell>
        <mxCell id="FYM2k32ndvNcaV-MZAKf-128" value="Service" style="rounded=1;whiteSpace=wrap;html=1;horizontal=1;verticalAlign=top;" vertex="1" parent="1">
          <mxGeometry x="355.5" y="1800" width="120" height="60" as="geometry" />
        </mxCell>
        <mxCell id="FYM2k32ndvNcaV-MZAKf-129" value="Pod" style="rounded=1;whiteSpace=wrap;html=1;horizontal=1;verticalAlign=top;" vertex="1" parent="1">
          <mxGeometry x="515.5" y="1800" width="120" height="60" as="geometry" />
        </mxCell>
        <mxCell id="FYM2k32ndvNcaV-MZAKf-130" value="" style="aspect=fixed;html=1;points=[];align=center;image;fontSize=12;image=img/lib/mscae/Kubernetes.svg;" vertex="1" parent="1">
          <mxGeometry x="145.5" y="1702" width="30" height="28.8" as="geometry" />
        </mxCell>
        <mxCell id="FYM2k32ndvNcaV-MZAKf-131" value="" style="html=1;dashed=0;whitespace=wrap;fillColor=#2875E2;strokeColor=#ffffff;points=[[0.005,0.63,0],[0.1,0.2,0],[0.9,0.2,0],[0.5,0,0],[0.995,0.63,0],[0.72,0.99,0],[0.5,1,0],[0.28,0.99,0]];shape=mxgraph.kubernetes.icon;prIcon=ns;aspect=fixed;" vertex="1" parent="1">
          <mxGeometry x="265.5" y="1762" width="30" height="28.8" as="geometry" />
        </mxCell>
        <mxCell id="FYM2k32ndvNcaV-MZAKf-132" value="" style="html=1;dashed=0;whitespace=wrap;fillColor=#2875E2;strokeColor=#ffffff;points=[[0.005,0.63,0],[0.1,0.2,0],[0.9,0.2,0],[0.5,0,0],[0.995,0.63,0],[0.72,0.99,0],[0.5,1,0],[0.28,0.99,0]];shape=mxgraph.kubernetes.icon;prIcon=pod;aspect=fixed;" vertex="1" parent="1">
          <mxGeometry x="560.5" y="1823" width="30" height="28.8" as="geometry" />
        </mxCell>
        <mxCell id="FYM2k32ndvNcaV-MZAKf-133" value="" style="html=1;dashed=0;whitespace=wrap;fillColor=#2875E2;strokeColor=#ffffff;points=[[0.005,0.63,0],[0.1,0.2,0],[0.9,0.2,0],[0.5,0,0],[0.995,0.63,0],[0.72,0.99,0],[0.5,1,0],[0.28,0.99,0]];shape=mxgraph.kubernetes.icon;prIcon=ing;aspect=fixed;" vertex="1" parent="1">
          <mxGeometry x="240.5" y="1823" width="30" height="28.8" as="geometry" />
        </mxCell>
        <mxCell id="FYM2k32ndvNcaV-MZAKf-134" value="" style="html=1;dashed=0;whitespace=wrap;fillColor=#2875E2;strokeColor=#ffffff;points=[[0.005,0.63,0],[0.1,0.2,0],[0.9,0.2,0],[0.5,0,0],[0.995,0.63,0],[0.72,0.99,0],[0.5,1,0],[0.28,0.99,0]];shape=mxgraph.kubernetes.icon;prIcon=svc;aspect=fixed;" vertex="1" parent="1">
          <mxGeometry x="400.5" y="1823" width="30" height="28.8" as="geometry" />
        </mxCell>
        <mxCell id="FYM2k32ndvNcaV-MZAKf-135" value="" style="edgeStyle=orthogonalEdgeStyle;rounded=0;orthogonalLoop=1;jettySize=auto;html=1;strokeColor=#000000;strokeWidth=1;entryX=0;entryY=0.5;entryDx=0;entryDy=0;" edge="1" parent="1" source="FYM2k32ndvNcaV-MZAKf-136" target="FYM2k32ndvNcaV-MZAKf-138">
          <mxGeometry relative="1" as="geometry">
            <mxPoint x="345.5" y="1910" as="targetPoint" />
          </mxGeometry>
        </mxCell>
        <mxCell id="FYM2k32ndvNcaV-MZAKf-136" value="Ingress (minion)" style="rounded=1;whiteSpace=wrap;html=1;horizontal=1;verticalAlign=top;" vertex="1" parent="1">
          <mxGeometry x="195.5" y="1880" width="120" height="60" as="geometry" />
        </mxCell>
        <mxCell id="FYM2k32ndvNcaV-MZAKf-137" style="edgeStyle=orthogonalEdgeStyle;rounded=0;orthogonalLoop=1;jettySize=auto;html=1;entryX=0;entryY=0.5;entryDx=0;entryDy=0;strokeColor=#000000;strokeWidth=1;" edge="1" parent="1" source="FYM2k32ndvNcaV-MZAKf-138" target="FYM2k32ndvNcaV-MZAKf-139">
          <mxGeometry relative="1" as="geometry" />
        </mxCell>
        <mxCell id="FYM2k32ndvNcaV-MZAKf-138" value="Service" style="rounded=1;whiteSpace=wrap;html=1;horizontal=1;verticalAlign=top;" vertex="1" parent="1">
          <mxGeometry x="355.5" y="1880" width="120" height="60" as="geometry" />
        </mxCell>
        <mxCell id="FYM2k32ndvNcaV-MZAKf-139" value="Pod" style="rounded=1;whiteSpace=wrap;html=1;horizontal=1;verticalAlign=top;" vertex="1" parent="1">
          <mxGeometry x="515.5" y="1880" width="120" height="60" as="geometry" />
        </mxCell>
        <mxCell id="FYM2k32ndvNcaV-MZAKf-140" value="" style="html=1;dashed=0;whitespace=wrap;fillColor=#2875E2;strokeColor=#ffffff;points=[[0.005,0.63,0],[0.1,0.2,0],[0.9,0.2,0],[0.5,0,0],[0.995,0.63,0],[0.72,0.99,0],[0.5,1,0],[0.28,0.99,0]];shape=mxgraph.kubernetes.icon;prIcon=pod;aspect=fixed;" vertex="1" parent="1">
          <mxGeometry x="560.5" y="1903" width="30" height="28.8" as="geometry" />
        </mxCell>
        <mxCell id="FYM2k32ndvNcaV-MZAKf-141" value="" style="html=1;dashed=0;whitespace=wrap;fillColor=#2875E2;strokeColor=#ffffff;points=[[0.005,0.63,0],[0.1,0.2,0],[0.9,0.2,0],[0.5,0,0],[0.995,0.63,0],[0.72,0.99,0],[0.5,1,0],[0.28,0.99,0]];shape=mxgraph.kubernetes.icon;prIcon=ing;aspect=fixed;" vertex="1" parent="1">
          <mxGeometry x="240.5" y="1903" width="30" height="28.8" as="geometry" />
        </mxCell>
        <mxCell id="FYM2k32ndvNcaV-MZAKf-142" value="" style="html=1;dashed=0;whitespace=wrap;fillColor=#2875E2;strokeColor=#ffffff;points=[[0.005,0.63,0],[0.1,0.2,0],[0.9,0.2,0],[0.5,0,0],[0.995,0.63,0],[0.72,0.99,0],[0.5,1,0],[0.28,0.99,0]];shape=mxgraph.kubernetes.icon;prIcon=svc;aspect=fixed;" vertex="1" parent="1">
          <mxGeometry x="400.5" y="1903" width="30" height="28.8" as="geometry" />
        </mxCell>
        <mxCell id="FYM2k32ndvNcaV-MZAKf-143" value="Namespace" style="rounded=1;whiteSpace=wrap;html=1;horizontal=1;verticalAlign=top;" vertex="1" parent="1">
          <mxGeometry x="-324.5" y="1740" width="220" height="220" as="geometry" />
        </mxCell>
        <mxCell id="FYM2k32ndvNcaV-MZAKf-144" style="edgeStyle=orthogonalEdgeStyle;rounded=0;orthogonalLoop=1;jettySize=auto;html=1;entryX=0;entryY=0.5;entryDx=0;entryDy=0;" edge="1" parent="1" source="FYM2k32ndvNcaV-MZAKf-145" target="FYM2k32ndvNcaV-MZAKf-136">
          <mxGeometry relative="1" as="geometry">
            <Array as="points">
              <mxPoint x="-94.5" y="1870" />
              <mxPoint x="-94.5" y="1910" />
            </Array>
          </mxGeometry>
        </mxCell>
        <mxCell id="FYM2k32ndvNcaV-MZAKf-157" style="edgeStyle=orthogonalEdgeStyle;rounded=0;orthogonalLoop=1;jettySize=auto;html=1;entryX=0;entryY=0.5;entryDx=0;entryDy=0;" edge="1" parent="1" target="FYM2k32ndvNcaV-MZAKf-155">
          <mxGeometry relative="1" as="geometry">
            <mxPoint x="-173.5" y="1870" as="sourcePoint" />
            <mxPoint x="200" y="1990" as="targetPoint" />
            <Array as="points">
              <mxPoint x="-94" y="1870" />
              <mxPoint x="-94" y="1990" />
            </Array>
          </mxGeometry>
        </mxCell>
        <mxCell id="FYM2k32ndvNcaV-MZAKf-145" value="NGINX Ingress Controller" style="rounded=1;whiteSpace=wrap;html=1;horizontal=1;verticalAlign=top;" vertex="1" parent="1">
          <mxGeometry x="-289.5" y="1820" width="120" height="100" as="geometry" />
        </mxCell>
        <mxCell id="FYM2k32ndvNcaV-MZAKf-146" value="" style="html=1;dashed=0;whitespace=wrap;fillColor=#2875E2;strokeColor=#ffffff;points=[[0.005,0.63,0],[0.1,0.2,0],[0.9,0.2,0],[0.5,0,0],[0.995,0.63,0],[0.72,0.99,0],[0.5,1,0],[0.28,0.99,0]];shape=mxgraph.kubernetes.icon;prIcon=ns;aspect=fixed;" vertex="1" parent="1">
          <mxGeometry x="-229.5" y="1762" width="30" height="28.8" as="geometry" />
        </mxCell>
        <mxCell id="FYM2k32ndvNcaV-MZAKf-147" value="" style="shape=image;html=1;verticalAlign=top;verticalLabelPosition=bottom;labelBackgroundColor=#ffffff;imageAspect=0;aspect=fixed;image=https://cdn4.iconfinder.com/data/icons/logos-brands-5/24/nginx-128.png" vertex="1" parent="1">
          <mxGeometry x="-244.5" y="1865" width="38" height="38" as="geometry" />
        </mxCell>
        <mxCell id="FYM2k32ndvNcaV-MZAKf-148" style="edgeStyle=orthogonalEdgeStyle;rounded=0;orthogonalLoop=1;jettySize=auto;html=1;exitX=1;exitY=0.5;exitDx=0;exitDy=0;entryX=0;entryY=0.5;entryDx=0;entryDy=0;" edge="1" parent="1" source="FYM2k32ndvNcaV-MZAKf-145" target="FYM2k32ndvNcaV-MZAKf-126">
          <mxGeometry relative="1" as="geometry">
            <mxPoint x="25.5" y="2070" as="targetPoint" />
            <Array as="points">
              <mxPoint x="-94.5" y="1870" />
              <mxPoint x="-94.5" y="1830" />
            </Array>
          </mxGeometry>
        </mxCell>
        <mxCell id="FYM2k32ndvNcaV-MZAKf-149" style="edgeStyle=orthogonalEdgeStyle;rounded=0;orthogonalLoop=1;jettySize=auto;html=1;entryX=0;entryY=0.5;entryDx=0;entryDy=0;" edge="1" parent="1" source="FYM2k32ndvNcaV-MZAKf-150" target="FYM2k32ndvNcaV-MZAKf-145">
          <mxGeometry relative="1" as="geometry" />
        </mxCell>
        <mxCell id="FYM2k32ndvNcaV-MZAKf-150" value="User" style="verticalLabelPosition=bottom;html=1;verticalAlign=top;align=center;strokeColor=none;fillColor=#00BEF2;shape=mxgraph.azure.user;" vertex="1" parent="1">
          <mxGeometry x="-455.5" y="1845" width="47.5" height="50" as="geometry" />
        </mxCell>
        <mxCell id="FYM2k32ndvNcaV-MZAKf-151" value="service1.gov.uk/app1" style="text;html=1;strokeColor=none;fillColor=none;align=center;verticalAlign=middle;whiteSpace=wrap;rounded=0;" vertex="1" parent="1">
          <mxGeometry x="-34.5" y="1810" width="40" height="20" as="geometry" />
        </mxCell>
        <mxCell id="FYM2k32ndvNcaV-MZAKf-152" value="service1.gov.uk/app2" style="text;html=1;strokeColor=none;fillColor=none;align=center;verticalAlign=middle;whiteSpace=wrap;rounded=0;" vertex="1" parent="1">
          <mxGeometry x="-34.5" y="1890" width="40" height="20" as="geometry" />
        </mxCell>
        <mxCell id="FYM2k32ndvNcaV-MZAKf-153" value="Ingress (master)" style="rounded=1;whiteSpace=wrap;html=1;horizontal=1;verticalAlign=top;" vertex="1" parent="1">
          <mxGeometry x="65.5" y="1760" width="120" height="60" as="geometry" />
        </mxCell>
        <mxCell id="FYM2k32ndvNcaV-MZAKf-154" value="" style="html=1;dashed=0;whitespace=wrap;fillColor=#2875E2;strokeColor=#ffffff;points=[[0.005,0.63,0],[0.1,0.2,0],[0.9,0.2,0],[0.5,0,0],[0.995,0.63,0],[0.72,0.99,0],[0.5,1,0],[0.28,0.99,0]];shape=mxgraph.kubernetes.icon;prIcon=ing;aspect=fixed;" vertex="1" parent="1">
          <mxGeometry x="110.5" y="1783" width="30" height="28.8" as="geometry" />
        </mxCell>
        <mxCell id="FYM2k32ndvNcaV-MZAKf-164" style="edgeStyle=orthogonalEdgeStyle;rounded=0;orthogonalLoop=1;jettySize=auto;html=1;" edge="1" parent="1" source="FYM2k32ndvNcaV-MZAKf-155" target="FYM2k32ndvNcaV-MZAKf-163">
          <mxGeometry relative="1" as="geometry" />
        </mxCell>
        <mxCell id="FYM2k32ndvNcaV-MZAKf-155" value="Ingress (minion)" style="rounded=1;whiteSpace=wrap;html=1;horizontal=1;verticalAlign=top;" vertex="1" parent="1">
          <mxGeometry x="195.5" y="1960" width="120" height="60" as="geometry" />
        </mxCell>
        <mxCell id="FYM2k32ndvNcaV-MZAKf-156" value="" style="html=1;dashed=0;whitespace=wrap;fillColor=#2875E2;strokeColor=#ffffff;points=[[0.005,0.63,0],[0.1,0.2,0],[0.9,0.2,0],[0.5,0,0],[0.995,0.63,0],[0.72,0.99,0],[0.5,1,0],[0.28,0.99,0]];shape=mxgraph.kubernetes.icon;prIcon=ing;aspect=fixed;" vertex="1" parent="1">
          <mxGeometry x="240.5" y="1983" width="30" height="28.8" as="geometry" />
        </mxCell>
        <mxCell id="FYM2k32ndvNcaV-MZAKf-162" value="service1.gov.uk/" style="text;html=1;strokeColor=none;fillColor=none;align=center;verticalAlign=middle;whiteSpace=wrap;rounded=0;" vertex="1" parent="1">
          <mxGeometry x="-34.5" y="1970" width="40" height="20" as="geometry" />
        </mxCell>
        <mxCell id="FYM2k32ndvNcaV-MZAKf-163" value="" style="shape=image;verticalLabelPosition=bottom;labelBackgroundColor=#ffffff;verticalAlign=top;aspect=fixed;imageAspect=0;image=data:image/png,iVBORw0KGgoAAAANSUhEUgAAAacAAAB4CAYAAABW8D3WAAAgAElEQVR4Ae2dWcw2RZXHvR/ux4z3knAzJuPNeKHhYhTHjDISgsiYcRSGQCAfjII3LAkBxwFGgWCAjCLLR4CEJQwokBBkR1kCqJFNPnYUQmRHWaQnv5c5H/XVW919Tnd1P/3w/it5Uv30Usupf9e/zqlT1R/5q912a/STDIQBYUAYEAaWhIGPLKkwKoteDmFAGBAGhAEwIHKS5ijNWRgQBoSBxWFA5CRQLg6UGjlr5CwMCAMiJ5GTyEkYEAaEgcVhQOQkUC4OlBo1a9QsDAgDIieRk8hJGBAGhIHFYUDkJFAuDpQaNWvULAwIAyInkZPISRgQBoSBxWFA5CRQLg6UGjVr1CwMCAMiJ5GTyEkYEAaEgcVhQOQkUC4OlBo1a9QsDAgDIieRk8hJGBAGhIHFYUDkJFAuDpQaNWvULAwIAyInkZPISRgQBoSBxWFA5CRQLg6UGjVr1CwMCAMiJ5GTyEkYEAaEgcVhQOQkUC4OlBo1a9QsDAgDIieRk8hJGBAGhIHFYUDkJFAuDpQaNWvULAwIAyInkZPISRgQBoSBxWFgS5PTHnvs0Zx00kmdP+7RKE6jOGFAGBAG5sXAlianv/nYx5q+wD0C5byglLwlb2FAGNjS5MQLcPU117TyE9f0kuglEQaEAWFgfgxseXI6+OCDW8mJawLl/KCUzCVzYUAY2PLkxJxSW5BJTy+IOklhQBhYDQa2PDkBvF/96leb+EkmvdUAUh2B5C4MCANgYEuRU5smdPR3vrOJnNpMem1p6IXSCyUMCAPCQD0MbClyOum7322eePLJ5swzz2w+t9deO+eTSqa91IV8v/3223iGZ0lDAKwHQMlSshQGhIESBrYcOaUq0ssvv9xcuH37xjqn9DzHrH/iGvekQeSkF6n0IumccCEM1MXAlianlHS8xyKnugDUCy15CgPCQAkDIicvK/3/fSInvUilF0nnhAthoC4GRE4iJ82haV81YUAYWBwGFk1OzPvghGDhgQceaL7yla8MFiJaTx5eeeWV5tZbb81Pb5zjWh7GaE57ff7zDXWwwHwWdfywjbg+vvvuzTHHHNP87Nprm0cffbRBjn/+85+t2jtjzr322mvNjscfb2688cbm5FNOaT79mc8sVh5//dGPNv9+8MHNxRdf3Nx///3Niy++2LzxxhvNe++9t7NOHLz77rvN66+/3jz//PPNXXff3fz43HObf/7ylyep1//86EfNX/7yl13y7/rzm9/8pmo5/vN732veeuutrix3ufaLX/yiav7puxMpy3nnn1+9HP/4hS80zz777C71bfvz4IMPuvI/8KCDNt6RtnTS8940U5mVjrdt27Zprj3Np3RMX/bto45y1amUZ+ncYskJZ4S20ObmXapgei4lJzpM/uMannvrIWie41r6DOUZSk5dO1HccsstVRs1rfNcxxDSD047rXnkkUead955p63pes/T0b/wwgvN5ZdfPlmHHpXJYYcd1tCpQkRjApi74YYbmv33379ae4OrV1991V0sZLvvvvtWy/+yyy5z5w2JnnPOOdXyzttR5OQjvFxu6X8GUc8884y7TbnxT3/608bAMk2nxvEiyamrIzeppa7eXkEY0Wzfvn2DeOy50jqnVEMjL54hDCEnSC73+rN6WEwZrDzrFENKF1x4YfPSSy9ZVarFENVvf/vb5ogjj1yJbI499tjm6aef3qQZja2g1evQQw8dXa+//cQnmscee8xdJLQcOvEaGEOTpH28ARIdOrD0lFfkNI6c/u6Tn2x+/etfe5tz4z6sBBdddFEVPOVtvEhyKpnZcom1deYQCWuY0nVMVmnMaiVSS01tlg9kZM9ZzLOkYf+JIR7Lr5Q293jIljqn6a7DMZ03I/GpA535fffd13xp771nkdE3Dzyw2bFjR3VSyuWEhok5c8899xxVr2t++tM86c7/aDs18IUGFml/SBQyrZF3KQ2R03ByYqABFnnXvAFiuuSSSxqeLbXH2HOLJKc+LQPh5RoMJJGbAkmnb06H50rBTHtdAibtvKyUgTTT50xjK+WTnkufWfIxneltt90WAnJaz6HHmA9+ct55k70MvGSkTz5zBsx9/3XyybtgJtL+kU6ZeqHt1OhQovlCopF6Re+NlEdzTrt61qH9QDbeAIlBZjVw1NbOiyQnj+aUk1NJ+zFBQxhtAujSalLTXv78/159tSW/KaYs6f0ecmJ/v/SZpR6jVURt0psENOIELwX4wARRU0akd/vtt89OuCYKtKgrrrhi0Mse1WBqzTtF5ptqmhPb2l3kNExzwhEpOiDD/Ff7HczbdXZyQqs46uijGzp3HAE4HqJp/P2nPrWzcyrNGdlLb3FujjNBdH3PqWTa4znS6gup2RFzX1/IydbkhIyQVUlOVoe5Yrxx/vjHP/ZVZZbreJ2NNYeZ3GjPhx56aJZyd2UC8d50000N83hWNm+M2dMbahAFI+bIfFMtQuySh8gpTk5DPPMYnE7lfZq276zkBKHkZjBeKM6lZEMBSzuF28v3wx/+cJeX16Np5c+QBwTQFdpMe6TVF/I5pK5nqGtK0BE5pY055fEQEPfJaOz1GqO3IZPAY8vd9fxQc8n5F1wQ0vrGmtii2hrkOSU+SVvkFCMnBnePP/FEFxw3XaNPpC+Yui1JfzZyovMtEZPVnmtpB81xSaspkYyHnHKyoPJdJj0rV8m0NzS/EkFRx7zeETnNAZIh7qUmvynjoR25yYzJ+a5B0JRl70p7iAfUf3zrW83rAVf3sfNOESKgnSBPk/tUcaRMW33OCc036gDBmsS+OfyabTsbOXnmXUrEg0kMgsD00uYNZ27eXS98bjZDiCXyy9MomfY8dSHtUkNBRNSFOuXaIvd7TJQlOZXyqnFujGZBJ8siXDoCBgKpjZrjww8/fGM90xh37bfffrs544wzirLuq390EjjFBk4MN998c3P88cc3++yzz878eem/esABG+s+fnnXXYPXRkXXjrB4OV2wnpa1dIx59l++9rWd5e6TVX49Mt8EaUKeeRq1/4uc/JpTFPtRPNZo29nIaai24akkHX1fyIkNkvAEtJi8DJ45Jzrj/DnP/ynl5Mk/v4fFsIx8I4H7o67fLEzlmWhelOu5554L28CZP4toGlZ/5k5OOfVUt+OCrQODzKIhWq+f//zn7izGzDtF55sgzTl2/hA5+cgp6gAxRJPP+5Eh/2cjJ4+WUjK9eSvVpT2VNA2PSc/edMgoL0dXfm1aU55G6f+SyGlIB85i3BNOOGGTvEp1LZ3j2eiCXgjtyiuvdOeJ1va73/3OmtcV84Jef/31g5wVqCdrtNheJkq+OEhABiVZ5edOP/300O4cQ+edovNNkGZe1in+i5z6ySk6dwxep3YZb8PCbOTkMVeVTG9tBS+dJ490hPrkk0+2rkj3mOas12orF+fT/Dhuu7dU3tI5j5xKZFtKa8w5OsR7773XROCKGenjaj4mX54lDdLyBOzg7HUX8XBjCx3Ixhtw8y6Zd6P1pIyQTYSg3nzzzea4445zyTRKGg8//LCb+NK6RkgA2UGa6fNTHUfKtRXnnIbMHddwOhra3rORE2Y0yKIt0LGnjgFDK8RzXfNTlq5Hk7Oy9hEOJsOSdmV5RWJkkBKelcHimnLqKlfkRadsmD9revH0jfCG7q6Ah1IXDk3OFtc2aQyZw2OQ4NWeIi7lQ+edIvNNQ/PowmbbtQhmtxo5DcEd78kcLuNt7TkbOVEAHABKHQMdbsk5oK3QNc5DON6ANlMjT28ayKJEUHPJiY6QXbe9gfkL5mG89fPeh6MDDg9pQOuIzmel+f3397+/Kc00/fwYb77aW+5ER7DscO7dXzDiUk67DdmZgjVm3jDWKzBtu75jkVPZrMf7HPXMm2stU1ebzkpOFATNgM6euRW0F45raUxdFc2vQQDekDtT5GlN8d/khIyQ1ZxyoiOkQ/SGO++80z2yj8iKl4q0CZASXn3s5xdJI703Srpog+xInqZR6xgyhxy84drrrnOVI+pSHp13ipoOa+3j55G7yKlMTlHPvNpWEE/ble6ZnZxKhVjVuS6nBus0+kx6qyr7lPnSYXnDlB04dYQc8PY666yzRhMgTjCRz0t4CWFIW0SJku8E8b2gvryiLuXReacTTzyx+G2uEl6YL+O7Xn1lrnVd5LSZnKKeeatwGW9r/y1NTgili6DmcDxoa5hVnY92buxHt6qyRvONmLzwGPy3b3xj0rpFTIwR1++IS3l0Tigy3+Ql1Gg7tt0vctqVnA455JCQ52vt+dW2dvKen4WcMIuxstj2ieNrot4CznEfzgyYz5gP4wdh1XJwqFV+ZGb7ESLLqUyNEbNQpMOsJYcx6UScBZhzQ7sZk1/fs1HnDK8JLuJSHvWmi8w3zeVCbnIWOX1ATlEHiFW6jFv75fHk5NS2noidu4fMNdEpD3kur/jc/4c6fFDfth3Xhy707ap7RLuYe2TcVe6+a//0xS82v//970vWp03n+GIrnz/vS7PG9YiW43UuYOcHNCJv8JJeZL4pSno1ZClyep+cGFRFHCCWSEzgYVJyQvvoCvmnJfoACikx/zCU2PrSn+q6EfQQr782YjK51tbw+By5N3DvVDKrnW5EI8QZBJNI7TKU0otoOd6dvemcIjuGez8CGJlvipoLS7KJnhM5vU9OUQeIVa5l6mrjScnJs5aotLFqW4FT929Iah00KCMmOnycByLmOM+2TGN21cjlHP3kd42FqXkZpvrPwls0Ik/AjfYfPvvZWcjpwIMOalhI7AmRPeoic0NeIomk6dXyara3yOnBjT0dI99mQmu64YYbZsF6tK0nJScIpC94veEgIjr3NEQ1r6hwxt5fclf31pe8UzJO650eI5Ox5bTnI6avdZtvinSszKuYTKaO8cDDPOoJyNy7LgkvObzlPMFrgovMNyHvqWWXp7/Vyen555/f1Ed62j+yC0ku8yn/T0pOpYWkubC8nTUmsVKYYt6llsBLJrkImXjICRnXKm9kFM9on/tr5T11OpG5nbkn8tlzzxu8OxtESI+8+0bPkfmmuV3IDTtbnZy8GCrdh6aLE4XJcgnxpORU06zXllaks59T4F0mOa9zRFcaBjDkUqtekdG2d/4jLVuk87D6ReIuUlnyqD/iRRjRSCLzh33zTpH5plU5ykTw5SX5FL99x5EBAQOSvvS4HhkwRt6V/F7cyOf45panznbPpORUMmulQmFrGCtIX9y1W7e3sycPzINDPjAX1dC61k9FnBj6yhqpe5+MIy/3kA4okn6KE+9xFzlNoZ30ydN7fSqtLjLPhgbeta4rYhZdlaNMBF8ip81vFQNOPl3jxe3U901KThSeTr1k3qPTjXSsXeQU9YKDoEpl2txc758Zshi3q7wRckJGJYKi/FHC7ANT5OUWOe1W7SWeipzAh3dHjL55J6/midMJpNiHtSmuR/Arcir3dpFPtEzRhmmak5MTmeGhRgdPh81vyD5xbWY9ROydt0orTqfvCUPNZl3kFCFlygyZIjOTH1pZNI207m3HkZdb5LR8cop6X7bNO0XmmyDD2oOmNrzm5yP4FTmVez88/Yb0p3lb1Pg/Czl1FdTrWt3mEIGIh74MXWmSLrtFQAxd5W+71kZOaDxtz+Tnh+adp+P9H3m5RU7LJyfaPbJPYtu8U2S+qS0NLwbH3BfBr8ipTE6c5UOcS3COWAk5Meq/cPv2DbfH1MTV1Rlzrc0Ul6ZRAjcE2KZptJEIjdSWrmdtVtucU2RUQtnw+Dvq6KMHk2RJHm3nIp2QHCLqkdNUDhG0c6TDbtN6IvNN3t0m2jA45nykrluJnNCGIl9hxjR7ySWXuAfRY9qs69nZyAmCOPPMMzd2eEg5O9Wc0GS6CtvmWt31jF3Dq69ENuRfIr22eSZI1UMwaHN5IJ8uAqasqRZIGdLA3nrssdeXhtU5Gkc8g4a4kkc6j7Te3uMuh4ip5nWiMi7dP6WzRsQk1zbv5CXPVa99i+Brq5CTbebKN8S8X5fmfWNh9r9+/eud/XEJyzXPzUZObRqKVQbNhkW79r8tzp0D0jmhlOjy562DY9PUvHPPSa9EIhAbG9cS2siJdC1typKHPo2L6+nC4rxcll5fOnndvf8je7IN6YginYfVNRJ3kVNk9P9hWISbtrmXXJB1LsMIuQ3RptNyjj2O4GsrkBPEhAZkGxjjqMI5b5jqO23edp6NnNo0FCuomcHazG92X54O2hYaGZoRgTjVPuy5VDviHjSg/fbbb8NZA0JJrxv5fG6vvTZMakZK1qh23dLm+fQeSBYCSQmZ+tn9bXEug5L25UmnLf2+82zZw9Y93hAtS6Tz8JYhvS/vWNP6RtyqPwzbF6V1j2zmm88ZRda+QYJpvnMfR/D1YSen0mauzCNF9lwcMgCt2eazkROFLjkgcD7VMkqmPa5DQPbJDY4tlHZh4FpuwkuJwp4dGueai5FKnp4RFnl7Phli2z1Zp59rTiWNriYYSMvrMkxd51jPElnY2EVOkU523Td+zTER2fQ2n3fyapx0hqtexCly+qAHatvM9bjjjnNva0Vqjz/xRMOnXXJMzfF/VnKiQrlZDq2DuRQLqVmL+9GkTCuyezxxrt3UJKec+Dzlye9Bc0sbmHqmgf/5nFNOiunztY4j3l1DPPai5axFThHz1JxrdSBUb4h+tdZkHfmAZF53r0kwsimtlat2HCEnGwDWLENkb8opd4h46KGHNg3OrZ6Y+FjL5A0MOi6//PJd+ipLa+p4dnKiY09DSkx2Hk3JKt6mldi9bTFkZGkQt62TgiwhAdzGLZAnv/ScXSNOyQlyHRpSE2auJaFFpVphXp+0bjWP2VgUdd4T5lD7I/NgXZoTMvJ2tNR9nT82WMJDhARNjhFCB6+QYCnvuc5FyMnqWLNsEYeiqcgJkzTOD131wtEh8r0vvgo91ydk0nLPTk5k3qfFpHNGffdaJwr5QBpoF5BK7m2Xd/6QUkoyaT6phoKZMZ2PIj8IKRUi5yAzyz+/38qYx2k+KRHl9/E/LWuad+3jCBlQrqk/0x4xx/V1OJG5l3X+THsJE5FPwhvR1JR9qUy1z0XIYQqnl8hSjD6smmwidcLCtG3btl36Jksnj3GUQEv2hnvvvXenY0We1lT/V0JOdLRdIfXAM9KAcCCYkibFtVRAaF5px8+1lJxII72f4zRwb3odDSfVotJrHOfzZOSdh1L5jXDSObf8Of4jgzzPKf9HNAxeiMMOO2yy8nnnPJBT3wvPoMe7nQ/pXXvddZPVC/MK2pk3jDWhRrQgm3fyyr7NBX1KjJbSjgys+CoyZrhSOkPPlfqmtvb1rgeLkJNXG6N+zCMxn+QNb7/9dnPGGWdUlVefnFdCThTKSAfhYNqDACAF0zqs4GhAaDmptpJ3/jmZ2LNpbJ5vpXtz01yudZEO99h8WZpu23Ha6Hn5rSxmvjRHEWTCNWSRBiOxtrxqn+cT5ZFR1VQup7xA6aAglUnpuI+cooQwJfGecuqpbvMpda1BlN5Bh807ee/3fqywNk7z9CJza3S2aJN5GkP/s1XUI488UoLlpnMmX09eU5ETeUcx+PTTTzfMAXvKXeOelZFTrj1ZBwwJQA6m+dCB27W0wim5lQgnvZdj0ihpTFzLyS53yrC0IA2Ixv53xUayINPqkt6falvUN61jOgKbW2uijNis+XCZNzD3BNDT+tU4jq7L6CMnyhQxb1F/2puOp0Z9LA3kG3HZx3vwiCOPHF2GiFnznnvuaVi35Amr+OqtyTKPI58JqTmvePzxxzfeL9BGnEemJCcGa5jrvAHniJ/+7GejcZi3Wdv/lZETBUpHxTkhpJpSqfAQkoWSppM/A8m1pZmSgaVpWk2eTlsa+X2WDnF+Lf+fpglJpQFNKr9/jv+M1CMhYu/2lJ8JWOZ9IsFDTlFtzFbYe8rsuYe1Jrj5RkIte3/EpTxSPsx/nrq33UMHDBm+8cYbG9kic8xuPznvvObju+8eSjui9dcaVEXXD9Hved2zpyQn2mPbEUfstFZ52pxBN8+0tWXN8yslJzNnmVA8GpBVPiUnOsa0g7d7PDEkVAptWpYnzbxenme4hzrYWifKBBC8z9a+j3kk5BoJbI/yzQMPHF1mNAs2n4wGDzkhp6hGxpzKGDxY29DR4sbLCNQban5CO2L2ipQPxwmrYyRm5I421+UdyqJgFst70+WbVJFBjce7rS/viy66KLTzQsREOzU5UTe0oQgmp7AmlGS8UnKiM07NX7wQJRNYqeC5azgLXqMExf1dXnJDtBZMf3mnnprsSnWxc6x9SoNHI7Rnp4ijoKXsdAwnnHCCuzPJy33ooYeGTF6pvLzkxEg3Sn6M5q+//vrwSN7q96W99w5tvmn1qv19HWRUM0S0AJOFxd5OPUogeJBGwlNPPRUiQCs/5HrxxRc3DF68IWqinYOcGAxG9t2byzlipeREI+cmNTr2vs48dxgwYEA0fc8asNCYuojJ0mRHcHumL+beUsDho+/ZnJhIh3r2PTfl9Shore6MwphMp0P2lg8zx1VXXeW221teaewlJ8r07aOOarD9RwPzMMyv0TF56oa2dMGFF24ahHnyJa/aXyY9/fTTQ51pXzkjMk/lFdXMI/lEd0GgjmxkjEbtNSPSLvQfEY2DfKIm2jnIiXaJWhMgM/qHtE1rH6+cnHJnBHsZ2O6nVNmSZmLPWIwWxe7deefOXnmct22F7P6+GFMbWybxfDoXhebFOa6l5rhSevmOEFY30iuVx+t4YelMFUc9etK6o20gF/YxQwtFY7Fy0gmwGJCXgrp2mXbSNLuOIx0Y5fCO3Et5ovHffPPNDRPh++yzz856QVpfPeCA5uRTTml+edddO+dRSml0nWNynTRMXrXiiLt1V/m4NsaFnLaKBHNv98iBNsCDdEhAs8EJiXZNPdPAK0QBlsE02I4GBkMMijx1sHvmIqeoNQFSnto5YuXkRCPkpj1r9JQUsDuXdpOwe9chpj6QrpFkSVuyeqTefAbUVcS86DfeeGN4hGj1mDOOkhMvZNQ5YY760PFBnFO0N+0Z2fyzq75DXciHzH1F3K+RW3QXhK561rg2tDOfi5yQWVTjHEK2EUwvgpxy014NMKx7GqmGFmnQKe5daieet3GUnJAV5sTIZrd5nrX/04kxGIBEpmhL0vQuru2r21AX8qHam3fhqskNzdPr3t1X17HX2zZitbK2xXOS0xCNEwykFpG2egw5vwhyajPtjQXEuj7PJPOQxpzymVV24rgYe+aHhpATMmOeks0yVx0gJibzp3rZDR+RbYm6ZDLUhXwucqK+Y0y3XXWPXIs6dFg7Ec9JTuQX1TjR8jHNp2WudbwIcqIyCh9IYNVeem3ggqCYH6ITnSsw8j377LMbtu/pC0PJifpSN9bazFm3tD685LgYT6kxWbtGdnpPy5ge4+I+1IV8DrOe1RV5Rj3q0nqOPYaYIq7wVm6L5yYn8mUX8sh7MIXjDuVYDDnlruFjQbHOz3s9Dg3Ac8ZMDONSHXGfHdoWOEmwENPbmY4hJ2RIR3bppZdWcc6I1Jk5V5xq5mzHyE4KpbqM3esvush77Ea87LaPR95cgc4dk9fYd3kV5MRALbLvHjId++6VsL8YcsoXrs4FoiXmU2qopZ079thj3dvbDJExnZGNzOciJ5Mxa6127NgRGj0OqSMdWNTl3so4NsYUE9k/Ma/f2A9NTulK3iYbljYg74hWkNfb8x9tn0FVDS14FeSE/NjklfVM3lBzsbi132LICQeAKQOjU1xEa/zavAtrlD/dkd0aaakxWtTQNTxtskIjwyGA0ZvVe25yIl86FhYT/+EPf6jemdmousZ+eSajaIxrf2SH9rS9op5zbWXzzgeNmbMp5c3Aik1Ma5MUmj7YHastpWVeFTmB/8i+e+CDhe0150sXQ040SLrXXvoypMdGLnTibGHED60LQNgvX9+UNvZUx+Rp+RNb2YitzMR9YSku5BE5QVI/OO20wes/kAlOD7zYpUWnqyCntP6M8pmPGuv5xRqatjqm+c1xzGa2bA00JETWHHXVhQ7wiiuu6DQRQ0w1tsQqlaNGu0JwDGBY/1SzY7byroqcyD+6UL32EohFkZN15LiWc8zojo5+FWRj4JgqNiIzEjMCW/e68oKyXoJOeMfjj2/Y+fP5KV5ovO/oeHAPZiPJGiaQqdrK0qWMLOJmgp0drV988cUNUs1H4LykEBE7u991993Nj889d2NhrqWjeLedWjGyoAOutfHrENmm7YrLNyZlBkt5u4Jj5q3A7R133LGxSBrnjiF56pldMVCSx6LIqVRAnetvRMlIMhIGhIEPGwZETrsJ1B82UKs+wrQwsP4YEDmJnGSWEAaEAWFgcRgQOQmUiwOlRr3rP+pVG6oNx2JA5CRyEjkJA8KAMLA4DIicBMrFgXLsiEvPa9QuDKw/BkROIieRkzAgDAgDi8OAyEmgXBwoNepd/1Gv2lBtOBYDIieRk8hJGBAGhIHFYUDkJFAuDpRjR1x6XqN2YWD9MSByEjmJnIQBYUAYWBwGRE4C5eJAqVHv+o961YZqw7EYEDmJnEROwoAwIAwsDgMiJ4FycaAcO+LS8xq1CwPrjwGRk8hJ5CQMCAPCwOIwIHISKBcHSo1613/UqzZUG47FgMhJ5CRyEgaEAWFgcRgQOQmUiwPl2BGXnteoXRhYfwyInEROIidhQBgQBhaHAZGTQLk4UGrUu/6jXrWh2nAsBkROIieRkzAgDAgDi8OAyEmgXBwox4649LxG7cLA+mNA5CRyEjkJA8KAMLA4DIicBMrFgVKj3vUf9aoN1YZjMSByEjmJnIQBYUAYWBwGRE4C5eJAOXbEpec1ahcG1h8DIieRk8hJGBAGhIHFYUDkJFAuDpQa9a7/qFdtqDYciwGRk8hJ5CQMCAPCwOIwIHISKBcHyrEjLj2vUbswsP4YEDmJnEROwoAwIAwsDr6bN68AAAAnSURBVAMiJ4FycaDUqHf9R71qQ7XhWAyInEROIidhQBgQBhaHgf8DF20FaHGLI8cAAAAASUVORK5CYII=;" vertex="1" parent="1">
          <mxGeometry x="167.38" y="2090" width="176.25" height="50" as="geometry" />
        </mxCell>
      </root>
    </mxGraphModel>
  </diagram>
</mxfile>
